<mxfile host="app.diagrams.net" modified="2024-05-03T08:39:36.830Z" agent="Mozilla/5.0 (Macintosh; Intel Mac OS X 10_15_7) AppleWebKit/537.36 (KHTML, like Gecko) Chrome/103.0.5060.53 Safari/537.36" etag="akmELjw6akMVpsrO2wdj" version="24.3.1" type="github">
  <diagram id="C5RBs43oDa-KdzZeNtuy" name="Page-1">
    <mxGraphModel dx="954" dy="652" grid="1" gridSize="10" guides="1" tooltips="1" connect="1" arrows="1" fold="1" page="1" pageScale="1" pageWidth="827" pageHeight="1169" math="0" shadow="0">
      <root>
        <mxCell id="WIyWlLk6GJQsqaUBKTNV-0" />
        <mxCell id="WIyWlLk6GJQsqaUBKTNV-1" parent="WIyWlLk6GJQsqaUBKTNV-0" />
        <mxCell id="WIyWlLk6GJQsqaUBKTNV-2" value="" style="rounded=0;html=1;jettySize=auto;orthogonalLoop=1;fontSize=11;endArrow=block;endFill=0;endSize=8;strokeWidth=1;shadow=0;labelBackgroundColor=none;edgeStyle=orthogonalEdgeStyle;entryX=0.5;entryY=0;entryDx=0;entryDy=0;" parent="WIyWlLk6GJQsqaUBKTNV-1" source="WIyWlLk6GJQsqaUBKTNV-3" target="dbAgIo4c6Hb7sSEYwWGR-1" edge="1">
          <mxGeometry relative="1" as="geometry">
            <mxPoint x="320" y="199" as="targetPoint" />
          </mxGeometry>
        </mxCell>
        <mxCell id="WIyWlLk6GJQsqaUBKTNV-3" value="VM Startseite&amp;nbsp;" style="rounded=1;whiteSpace=wrap;html=1;fontSize=12;glass=0;strokeWidth=1;shadow=0;" parent="WIyWlLk6GJQsqaUBKTNV-1" vertex="1">
          <mxGeometry x="260" y="179" width="120" height="40" as="geometry" />
        </mxCell>
        <mxCell id="dbAgIo4c6Hb7sSEYwWGR-0" value="es wird von einem registrierten Benutzer ausgegangen, dessen Anmeldung problemlos verlaufen ist&amp;nbsp;" style="shape=note;whiteSpace=wrap;html=1;backgroundOutline=1;darkOpacity=0.05;" vertex="1" parent="WIyWlLk6GJQsqaUBKTNV-1">
          <mxGeometry x="20" y="20" width="200" height="120" as="geometry" />
        </mxCell>
        <mxCell id="dbAgIo4c6Hb7sSEYwWGR-1" value="&lt;meta charset=&quot;utf-8&quot;&gt;&lt;span style=&quot;color: rgb(0, 0, 0); font-family: Helvetica; font-size: 12px; font-style: normal; font-variant-ligatures: normal; font-variant-caps: normal; font-weight: 400; letter-spacing: normal; orphans: 2; text-align: center; text-indent: 0px; text-transform: none; white-space: normal; widows: 2; word-spacing: 0px; -webkit-text-stroke-width: 0px; background-color: rgb(251, 251, 251); text-decoration-thickness: initial; text-decoration-style: initial; text-decoration-color: initial; display: inline !important; float: none;&quot;&gt;wähle Unternehmen aus Liste aus&amp;nbsp;&lt;/span&gt;" style="rounded=1;whiteSpace=wrap;html=1;" vertex="1" parent="WIyWlLk6GJQsqaUBKTNV-1">
          <mxGeometry x="260" y="269" width="120" height="60" as="geometry" />
        </mxCell>
        <mxCell id="dbAgIo4c6Hb7sSEYwWGR-6" value="" style="endArrow=none;html=1;rounded=0;entryX=0;entryY=0.5;entryDx=0;entryDy=0;exitX=0.5;exitY=0.5;exitDx=0;exitDy=0;exitPerimeter=0;" edge="1" parent="WIyWlLk6GJQsqaUBKTNV-1" target="WIyWlLk6GJQsqaUBKTNV-3">
          <mxGeometry width="50" height="50" relative="1" as="geometry">
            <mxPoint x="125" y="200" as="sourcePoint" />
            <mxPoint x="220" y="150" as="targetPoint" />
          </mxGeometry>
        </mxCell>
        <mxCell id="dbAgIo4c6Hb7sSEYwWGR-7" value="gewünschten Vertrag auswählen&amp;nbsp;" style="rhombus;whiteSpace=wrap;html=1;" vertex="1" parent="WIyWlLk6GJQsqaUBKTNV-1">
          <mxGeometry x="240" y="389" width="160" height="90" as="geometry" />
        </mxCell>
        <mxCell id="dbAgIo4c6Hb7sSEYwWGR-9" value="" style="endArrow=block;html=1;rounded=0;exitX=0;exitY=0.5;exitDx=0;exitDy=0;entryX=0;entryY=0.5;entryDx=0;entryDy=0;endFill=0;" edge="1" parent="WIyWlLk6GJQsqaUBKTNV-1" source="dbAgIo4c6Hb7sSEYwWGR-7" target="dbAgIo4c6Hb7sSEYwWGR-1">
          <mxGeometry width="50" height="50" relative="1" as="geometry">
            <mxPoint x="390" y="360" as="sourcePoint" />
            <mxPoint x="440" y="310" as="targetPoint" />
            <Array as="points">
              <mxPoint x="220" y="434" />
              <mxPoint x="220" y="300" />
            </Array>
          </mxGeometry>
        </mxCell>
        <mxCell id="dbAgIo4c6Hb7sSEYwWGR-10" value="Unternehmen ändern&amp;nbsp;" style="edgeLabel;html=1;align=center;verticalAlign=middle;resizable=0;points=[];" vertex="1" connectable="0" parent="dbAgIo4c6Hb7sSEYwWGR-9">
          <mxGeometry x="-0.0769" y="1" relative="1" as="geometry">
            <mxPoint as="offset" />
          </mxGeometry>
        </mxCell>
        <mxCell id="dbAgIo4c6Hb7sSEYwWGR-11" value="Verwaltungsfunktionen zu einzelnen Verträgen&amp;nbsp;" style="swimlane;whiteSpace=wrap;html=1;startSize=50;" vertex="1" parent="WIyWlLk6GJQsqaUBKTNV-1">
          <mxGeometry x="550" y="352" width="200" height="160" as="geometry" />
        </mxCell>
        <mxCell id="dbAgIo4c6Hb7sSEYwWGR-12" value="- bearbeiten&amp;nbsp;&lt;div&gt;- löschen&amp;nbsp;&lt;/div&gt;&lt;div&gt;- neu erstellen&lt;/div&gt;&lt;div&gt;- drucken?&amp;nbsp;&lt;/div&gt;&lt;div&gt;- Suche&amp;nbsp;&lt;/div&gt;" style="text;html=1;align=left;verticalAlign=middle;resizable=0;points=[];autosize=1;strokeColor=none;fillColor=none;" vertex="1" parent="dbAgIo4c6Hb7sSEYwWGR-11">
          <mxGeometry x="10" y="55" width="100" height="90" as="geometry" />
        </mxCell>
        <mxCell id="dbAgIo4c6Hb7sSEYwWGR-14" value="Aktion ausführen&amp;nbsp;" style="endArrow=block;html=1;rounded=0;exitX=1;exitY=0.5;exitDx=0;exitDy=0;endFill=0;entryX=0;entryY=0.5;entryDx=0;entryDy=0;" edge="1" parent="WIyWlLk6GJQsqaUBKTNV-1" source="dbAgIo4c6Hb7sSEYwWGR-7">
          <mxGeometry width="50" height="50" relative="1" as="geometry">
            <mxPoint x="390" y="419" as="sourcePoint" />
            <mxPoint x="550" y="434" as="targetPoint" />
          </mxGeometry>
        </mxCell>
        <mxCell id="dbAgIo4c6Hb7sSEYwWGR-15" value="" style="strokeWidth=2;html=1;shape=mxgraph.flowchart.start_1;whiteSpace=wrap;fillColor=#000000;aspect=fixed;" vertex="1" parent="WIyWlLk6GJQsqaUBKTNV-1">
          <mxGeometry x="113" y="194" width="14" height="14" as="geometry" />
        </mxCell>
        <mxCell id="dbAgIo4c6Hb7sSEYwWGR-17" value="" style="rounded=0;html=1;jettySize=auto;orthogonalLoop=1;fontSize=11;endArrow=block;endFill=0;endSize=8;strokeWidth=1;shadow=0;labelBackgroundColor=none;edgeStyle=orthogonalEdgeStyle;entryX=1;entryY=0.5;entryDx=0;entryDy=0;exitX=0.5;exitY=0;exitDx=0;exitDy=0;" edge="1" parent="WIyWlLk6GJQsqaUBKTNV-1" source="dbAgIo4c6Hb7sSEYwWGR-11" target="dbAgIo4c6Hb7sSEYwWGR-1">
          <mxGeometry relative="1" as="geometry">
            <mxPoint x="330" y="229" as="sourcePoint" />
            <mxPoint x="330" y="279" as="targetPoint" />
          </mxGeometry>
        </mxCell>
        <mxCell id="dbAgIo4c6Hb7sSEYwWGR-18" value="" style="rounded=0;html=1;jettySize=auto;orthogonalLoop=1;fontSize=11;endArrow=block;endFill=0;endSize=8;strokeWidth=1;shadow=0;labelBackgroundColor=none;edgeStyle=orthogonalEdgeStyle;entryX=0.5;entryY=0;entryDx=0;entryDy=0;exitX=0.5;exitY=1;exitDx=0;exitDy=0;" edge="1" parent="WIyWlLk6GJQsqaUBKTNV-1" source="dbAgIo4c6Hb7sSEYwWGR-1" target="dbAgIo4c6Hb7sSEYwWGR-7">
          <mxGeometry relative="1" as="geometry">
            <mxPoint x="330" y="241" as="sourcePoint" />
            <mxPoint x="330" y="291" as="targetPoint" />
          </mxGeometry>
        </mxCell>
      </root>
    </mxGraphModel>
  </diagram>
</mxfile>
